<svg xmlns="http://www.w3.org/2000/svg" fill="none" viewBox="0 0 22 21" width="22" height="21">
<path fill="black" d="M 6.41675 10.4482 C 6.41675 9.50837 6.63739 8.70474 7.07868 8.03737 C 7.51997 7.37 8.12352 6.86613 8.88933 6.52558 C 9.59013 6.21229 10.4534 5.9877 11.4789 5.85126 C 11.8292 5.81048 12.4003 5.75597 13.1921 5.68775 V 5.34044 C 13.1921 4.46878 13.1013 3.88316 12.9195 3.5834 C 12.6469 3.17464 12.2187 2.97053 11.6345 2.97053 H 11.4789 C 11.0505 3.01131 10.6805 3.15434 10.369 3.39941 C 10.0576 3.64467 9.85626 3.98503 9.76546 4.42105 C 9.71352 4.69337 9.58386 4.84993 9.37611 4.89089 L 7.13707 4.60485 C 6.91642 4.55035 6.8061 4.42781 6.8061 4.23706 C 6.8061 4.19627 6.81255 4.14854 6.82545 4.09422 C 7.04609 2.88201 7.58794 1.9831 8.45118 1.39729 C 9.31424 0.811855 10.3235 0.484845 11.4789 0.416626 H 11.9656 C 13.445 0.416626 14.6003 0.81844 15.4313 1.62207 C 15.5613 1.75887 15.6819 1.90555 15.7914 2.06119 C 15.9013 2.21775 15.9892 2.35748 16.0538 2.48001 C 16.1188 2.60255 16.1774 2.77977 16.2292 3.01113 C 16.2813 3.24286 16.32 3.40289 16.3463 3.49122 C 16.3721 3.57974 16.3916 3.7705 16.4045 4.06349 C 16.4174 4.3563 16.4238 4.52987 16.4238 4.58437 V 9.52867 C 16.4238 9.88275 16.4725 10.2063 16.5699 10.4991 C 16.6673 10.7921 16.7616 11.0031 16.8521 11.1324 C 16.9429 11.2618 17.0924 11.4697 17.3 11.7554 C 17.3779 11.8783 17.4167 11.9873 17.4167 12.0826 C 17.4167 12.1916 17.365 12.2865 17.2608 12.3684 C 16.1837 13.3493 15.5997 13.8806 15.5087 13.9623 C 15.353 14.0849 15.1648 14.0984 14.944 14.0031 C 14.7626 13.8394 14.6036 13.6831 14.4671 13.5331 C 14.331 13.3835 14.2336 13.2745 14.175 13.2063 C 14.1168 13.1384 14.0225 13.0054 13.8929 12.8079 C 13.7632 12.6104 13.6719 12.4774 13.6203 12.4096 C 12.8935 13.2405 12.1797 13.758 11.4789 13.9623 C 11.0374 14.0984 10.4922 14.1666 9.84337 14.1666 C 8.84384 14.1666 8.02296 13.8429 7.38054 13.196 C 6.73796 12.5489 6.41675 11.633 6.41675 10.4482 Z M 9.76546 10.0395 C 9.76546 10.5708 9.89217 10.9964 10.1451 11.3164 C 10.3983 11.6365 10.7388 11.7965 11.1672 11.7965 C 11.2063 11.7965 11.2613 11.7898 11.3328 11.7762 C 11.4039 11.7623 11.4527 11.7556 11.4789 11.7556 C 12.0238 11.606 12.4456 11.2383 12.7442 10.6525 C 12.8871 10.3937 12.9941 10.1112 13.0655 9.80465 C 13.137 9.49831 13.1759 9.24958 13.1823 9.05882 C 13.1888 8.86825 13.1923 8.55495 13.1923 8.11912 V 7.6083 C 12.4393 7.6083 11.8684 7.66281 11.479 7.77181 C 10.3364 8.11217 9.76546 8.86806 9.76546 10.0395 Z" />
<path fill="#ff9900" d="M 17.9 16.0172 C 17.9269 15.9582 17.9668 15.8995 18.0203 15.8405 C 18.3535 15.5905 18.6735 15.4217 18.9802 15.3334 C 19.4868 15.1865 19.9803 15.1055 20.4601 15.0907 C 20.5937 15.0757 20.7202 15.0834 20.8402 15.1127 C 21.4403 15.1713 21.8 15.2819 21.9203 15.4436 C 21.9735 15.5319 22 15.6642 22 15.8405 V 15.9951 C 22 16.5095 21.8734 17.1163 21.6203 17.8147 C 21.3667 18.5131 21.0135 19.0759 20.56 19.5024 C 20.4936 19.561 20.4334 19.5902 20.3802 19.5902 C 20.3534 19.5902 20.3267 19.5829 20.3002 19.5683 C 20.2202 19.5243 20.2001 19.4433 20.2401 19.3256 C 20.7335 18.0463 20.98 17.1567 20.98 16.6564 C 20.98 16.4949 20.9535 16.3772 20.9003 16.3035 C 20.7668 16.1272 20.3937 16.0389 19.7803 16.0389 C 19.5533 16.0389 19.2869 16.0535 18.9802 16.083 C 18.647 16.1274 18.3403 16.1712 18.0601 16.2157 C 17.9801 16.2157 17.9269 16.2007 17.8999 16.1712 C 17.8734 16.142 17.8666 16.1126 17.88 16.083 C 17.88 16.0686 17.8866 16.0464 17.9 16.0172 Z M 0.0399255 15.6424 C 0.106707 15.5247 0.213234 15.5174 0.360045 15.6201 C 3.69337 17.7525 7.32014 18.8188 11.24 18.8188 C 13.8536 18.8188 16.4335 18.2819 18.9802 17.2083 C 19.0466 17.1791 19.1434 17.135 19.27 17.076 C 19.397 17.0173 19.4868 16.9731 19.54 16.9437 C 19.74 16.8554 19.8967 16.8997 20.01 17.076 C 20.1237 17.2527 20.087 17.4142 19.9002 17.5611 C 19.66 17.7525 19.3533 17.973 18.9802 18.223 C 17.8336 18.9732 16.5533 19.5539 15.14 19.9658 C 13.7268 20.3777 12.3466 20.5833 11.0001 20.5833 C 8.92003 20.5833 6.9533 20.1826 5.10007 19.3811 C 3.24667 18.5796 1.58663 17.4508 0.119955 15.9953 C 0.0399255 15.9216 0 15.848 0 15.7745 C 0 15.7303 0.0132488 15.6863 0.0399255 15.6424 Z" />
</svg>