<svg id="Layer_1" data-name="Layer 1" xmlns="http://www.w3.org/2000/svg" xmlns:xlink="http://www.w3.org/1999/xlink" viewBox="0 0 155.4 140"><defs><style>.cls-1{fill:none;}.cls-2{clip-path:url(#clip-path);}.cls-3{fill:#f5e9fe;}.cls-4{fill:#fff;}.cls-5{fill:#fef9ea;}.cls-6{fill:#ccc;}.cls-7{fill:#272b30;}.cls-8{fill:#3f3d56;}.cls-9{fill:#b253f5;}.cls-10{fill:#9f28f3;}.cls-11{fill:#f2c52c;}</style><clipPath id="clip-path" transform="translate(-4.3 0)"><rect class="cls-1" x="4.3" width="155.4" height="140"/></clipPath></defs><title>Illustrations</title><g class="cls-2"><path class="cls-3" d="M42.8,35.51c-2.67-8-10.92-12.42-16.35-10.61S17.1,35.23,19.78,43.22c2.47,7.39,10,11.66,15.12,10.9a.48.48,0,0,0-.07.21l-.16,1.31a.63.63,0,0,0,0,.3.58.58,0,0,0,.18.23.57.57,0,0,0,.27.13.77.77,0,0,0,.3,0l2.65-1a.74.74,0,0,0,.25-.17.57.57,0,0,0,.13-.27.61.61,0,0,0,0-.3.56.56,0,0,0-.16-.25l-1-.91a.42.42,0,0,0-.12-.08C41.85,50.86,45.28,42.92,42.8,35.51Z" transform="translate(-4.3 0)"/><path class="cls-4" d="M33.13,29.64a9.72,9.72,0,0,1,4.41,12.67c-.23.52.62.8.84.28A10.64,10.64,0,0,0,33.62,28.9C33.12,28.63,32.63,29.37,33.13,29.64Z" transform="translate(-4.3 0)"/><path class="cls-5" d="M151,23.87c-2.68-8-10.93-12.43-16.36-10.61S125.29,23.59,128,31.57c2.47,7.4,10,11.67,15.12,10.9a.58.58,0,0,0-.07.21L142.85,44a.57.57,0,0,0,0,.29.59.59,0,0,0,.45.36.61.61,0,0,0,.3,0l2.65-1a.6.6,0,0,0,.25-.16.57.57,0,0,0,.13-.27.51.51,0,0,0,0-.3.56.56,0,0,0-.16-.25l-.95-.92-.12-.08C150,39.21,153.46,31.28,151,23.87Z" transform="translate(-4.3 0)"/><path class="cls-4" d="M141.31,18a9.74,9.74,0,0,1,4.41,12.68c-.23.52.62.8.85.28a10.68,10.68,0,0,0-4.77-13.7C141.3,17,140.81,17.73,141.31,18Z" transform="translate(-4.3 0)"/><path class="cls-5" d="M88.16,11C85.49,3,77.24-1.41,71.81.4s-9.35,10.33-6.67,18.32c2.47,7.39,10,11.66,15.12,10.9a.48.48,0,0,0-.07.21L80,31.14a.63.63,0,0,0,0,.3.69.69,0,0,0,.18.24.66.66,0,0,0,.27.12.77.77,0,0,0,.3,0l2.65-.95a.62.62,0,0,0,.25-.17.62.62,0,0,0,.12-.56.63.63,0,0,0-.16-.26l-1-.91-.11-.08C87.21,26.36,90.64,18.42,88.16,11Z" transform="translate(-4.3 0)"/><path class="cls-4" d="M78.49,5.14A9.75,9.75,0,0,1,82.9,17.81c-.23.53.61.8.84.28A10.64,10.64,0,0,0,79,4.4C78.48,4.13,78,4.87,78.49,5.14Z" transform="translate(-4.3 0)"/><path class="cls-6" d="M74.76,49.45a.64.64,0,0,0,.64-.64.64.64,0,0,0-1.28,0A.64.64,0,0,0,74.76,49.45Z" transform="translate(-4.3 0)"/><path class="cls-6" d="M73.4,75a1.26,1.26,0,1,0-1.25-1.26A1.26,1.26,0,0,0,73.4,75Z" transform="translate(-4.3 0)"/><path class="cls-6" d="M52.35,70.14a.73.73,0,1,0-.73-.72A.73.73,0,0,0,52.35,70.14Z" transform="translate(-4.3 0)"/><path class="cls-6" d="M63.39,58.24a.79.79,0,1,0,0-1.57.79.79,0,1,0,0,1.57Z" transform="translate(-4.3 0)"/><path class="cls-6" d="M102.11,104.32a.64.64,0,1,0-.63-.64A.64.64,0,0,0,102.11,104.32Z" transform="translate(-4.3 0)"/><path class="cls-6" d="M81.27,91.23A1.26,1.26,0,1,0,80,90,1.25,1.25,0,0,0,81.27,91.23Z" transform="translate(-4.3 0)"/><path class="cls-6" d="M95.59,74.67a.72.72,0,0,0,.72-.72.73.73,0,1,0-.72.72Z" transform="translate(-4.3 0)"/><path class="cls-6" d="M100.36,90.29a.79.79,0,1,0-.78-.79A.79.79,0,0,0,100.36,90.29Z" transform="translate(-4.3 0)"/><path class="cls-7" d="M142.75,130.82c.7-.58-.24-2.84-2.09-5.06s-3.92-3.53-4.62-3,.25,2.85,2.1,5.06S142.06,131.4,142.75,130.82Z" transform="translate(-4.3 0)"/><path class="cls-7" d="M128.29,135.45A10.45,10.45,0,1,0,117.84,125,10.44,10.44,0,0,0,128.29,135.45Z" transform="translate(-4.3 0)"/><path class="cls-7" d="M132.71,133.2h-3.17v5.69h3.17Z" transform="translate(-4.3 0)"/><path class="cls-7" d="M126.36,133.2h-3.17v5.69h3.17Z" transform="translate(-4.3 0)"/><path class="cls-7" d="M130.07,140c1.45,0,2.64-.45,2.64-1s-1.19-1-2.64-1-2.65.45-2.65,1S128.6,140,130.07,140Z" transform="translate(-4.3 0)"/><path class="cls-7" d="M123.72,139.81c1.46,0,2.64-.44,2.64-1s-1.18-1-2.64-1-2.65.44-2.65,1S122.26,139.81,123.72,139.81Z" transform="translate(-4.3 0)"/><path class="cls-3" d="M125,111.87c.93-3.75,5-6,9.19-4.94s6.76,4.91,5.82,8.67-4,3.77-8.17,2.74S124.07,115.63,125,111.87Z" transform="translate(-4.3 0)"/><path class="cls-7" d="M121.24,122.39c.39-.81-1.41-2.48-4-3.71s-5-1.58-5.42-.76,1.41,2.48,4,3.72S120.85,123.21,121.24,122.39Z" transform="translate(-4.3 0)"/><path class="cls-5" d="M126.73,126.28a3.48,3.48,0,1,0-3.49-3.48A3.48,3.48,0,0,0,126.73,126.28Z" transform="translate(-4.3 0)"/><path class="cls-8" d="M125.29,122.71a1.16,1.16,0,1,0-1.16-1.16A1.16,1.16,0,0,0,125.29,122.71Z" transform="translate(-4.3 0)"/><path class="cls-5" d="M128.91,130.06a2.28,2.28,0,0,1-.37,1.73,2.33,2.33,0,0,1-.66.63,2.29,2.29,0,0,1-.84.34,2.47,2.47,0,0,1-.9,0,2.28,2.28,0,0,1-.83-.36,2.06,2.06,0,0,1-.63-.65,2.36,2.36,0,0,1-.34-.84h0c-.23-1.26.75-1.71,2-1.93S128.68,128.79,128.91,130.06Z" transform="translate(-4.3 0)"/><path class="cls-7" d="M42.4,117.7c1-2.69,1.18-5.14.34-5.46s-2.37,1.59-3.4,4.29S38.16,121.67,39,122,41.37,120.39,42.4,117.7Z" transform="translate(-4.3 0)"/><path class="cls-7" d="M31.22,135.45A10.45,10.45,0,1,0,20.77,125,10.44,10.44,0,0,0,31.22,135.45Z" transform="translate(-4.3 0)"/><path class="cls-7" d="M29.63,133.2H26.46v5.69h3.17Z" transform="translate(-4.3 0)"/><path class="cls-7" d="M36,133.2H32.8v5.69H36Z" transform="translate(-4.3 0)"/><path class="cls-7" d="M29.1,140c1.46,0,2.64-.45,2.64-1s-1.18-1-2.64-1-2.64.45-2.64,1S27.64,140,29.1,140Z" transform="translate(-4.3 0)"/><path class="cls-7" d="M35.45,139.81c1.46,0,2.64-.44,2.64-1s-1.18-1-2.64-1-2.65.44-2.65,1S34,139.81,35.45,139.81Z" transform="translate(-4.3 0)"/><path class="cls-5" d="M31.48,125.93a3.57,3.57,0,1,0-3.57-3.57A3.57,3.57,0,0,0,31.48,125.93Z" transform="translate(-4.3 0)"/><path class="cls-8" d="M31.48,123.55a1.19,1.19,0,1,0-1.19-1.19A1.19,1.19,0,0,0,31.48,123.55Z" transform="translate(-4.3 0)"/><path class="cls-3" d="M21.08,115.29c-.84-3.78,1.85-7.6,6-8.53s8.24,1.38,9.08,5.16-1.92,5.17-6.09,6.1S21.93,119.07,21.08,115.29Z" transform="translate(-4.3 0)"/><path class="cls-7" d="M24.17,122.39c.39-.81-1.41-2.48-4-3.71s-5-1.58-5.42-.76,1.41,2.48,4,3.72S23.78,123.21,24.17,122.39Z" transform="translate(-4.3 0)"/><path class="cls-5" d="M26.08,128.77c0,1,2.64,3,5.56,3s5.66-2.88,5.66-3.9-2.74.2-5.66.2S26.08,127.75,26.08,128.77Z" transform="translate(-4.3 0)"/><path class="cls-7" d="M81.12,125.5a10.45,10.45,0,1,0-10.45-10.44A10.44,10.44,0,0,0,81.12,125.5Z" transform="translate(-4.3 0)"/><path class="cls-7" d="M79.53,123.26H76.35v5.68h3.18Z" transform="translate(-4.3 0)"/><path class="cls-7" d="M85.88,123.26H82.7v5.68h3.18Z" transform="translate(-4.3 0)"/><path class="cls-7" d="M79,130c1.46,0,2.64-.44,2.64-1s-1.18-1-2.64-1-2.65.44-2.65,1S77.54,130,79,130Z" transform="translate(-4.3 0)"/><path class="cls-7" d="M85.35,129.87c1.46,0,2.64-.44,2.64-1s-1.18-1-2.64-1-2.65.44-2.65,1S83.89,129.87,85.35,129.87Z" transform="translate(-4.3 0)"/><path class="cls-9" d="M71,105.34c-.84-3.77,1.85-7.59,6-8.52s8.24,1.37,9.08,5.15-1.92,5.17-6.09,6.1S71.83,109.12,71,105.34Z" transform="translate(-4.3 0)"/><path class="cls-7" d="M92.37,110.49c2.26-2.26,3.52-4.67,2.81-5.38s-3.12.55-5.38,2.81-3.52,4.68-2.81,5.39S90.11,112.76,92.37,110.49Z" transform="translate(-4.3 0)"/><path class="cls-7" d="M72.69,114c.72-.72-.54-3.13-2.8-5.39s-4.68-3.52-5.39-2.81.55,3.12,2.81,5.38S72,114.75,72.69,114Z" transform="translate(-4.3 0)"/><path class="cls-10" d="M144.62,48.76c-.34-10.71-7.68-19.17-16.38-18.88-19.37.57-19.84,36.09-1.14,38.64l-.4,3.15,5.78-.19-.6-3.12C139.4,66.7,144.94,58.47,144.62,48.76Z" transform="translate(-4.3 0)"/><path class="cls-4" d="M118.61,54.7l-2.19.07A35.71,35.71,0,0,1,116,42.4l2.19-.07A27.21,27.21,0,0,0,118.61,54.7Z" transform="translate(-4.3 0)"/><path class="cls-8" d="M132.76,68.32l-6.55.21.05,1.45,6.55-.21Z" transform="translate(-4.3 0)"/><path class="cls-8" d="M113.75,124l-.66-.3,16.2-55,.66.31Z" transform="translate(-4.3 0)"/><path class="cls-11" d="M158,57.82c4-10,.6-20.64-7.49-23.86-18-7.2-32.6,25.17-16.47,35l-1.62,2.73,5.37,2.13.69-3.1C146.09,72.18,154.45,66.85,158,57.82Z" transform="translate(-4.3 0)"/><path class="cls-4" d="M131.81,52.88l-2-.81a35.69,35.69,0,0,1,4.57-11.5l2,.81A27.36,27.36,0,0,0,131.81,52.88Z" transform="translate(-4.3 0)"/><path class="cls-8" d="M133.27,68.59,132.73,70l6.09,2.41.53-1.35Z" transform="translate(-4.3 0)"/><path class="cls-8" d="M113.62,122.57l-.63-.36,22.62-51.64.63.36Z" transform="translate(-4.3 0)"/><path class="cls-11" d="M35.06,49.45c-4.29-9.82-14.23-15-22.21-11.49-17.78,7.7-5.09,40.87,13.22,36.33l.8,3.07,5.3-2.31-1.71-2.67C36.84,68.05,38.94,58.36,35.06,49.45Z" transform="translate(-4.3 0)"/><path class="cls-4" d="M13.08,64.59l-2,.87A35.44,35.44,0,0,1,6.13,54.12l2-.87A27.32,27.32,0,0,0,13.08,64.59Z" transform="translate(-4.3 0)"/><path class="cls-8" d="M31.26,72l-6,2.62L25.84,76l6-2.62Z" transform="translate(-4.3 0)"/><path class="cls-8" d="M45.15,124.15a.32.32,0,0,1-.27,0,.34.34,0,0,1-.17-.22L28.89,73.77l.71-.17,15.82,50.11a.38.38,0,0,1,0,.15.33.33,0,0,1,0,.13.32.32,0,0,1-.1.1A.31.31,0,0,1,45.15,124.15Z" transform="translate(-4.3 0)"/><path class="cls-6" d="M49.38,140H11.3a.24.24,0,0,1-.17-.07.25.25,0,0,1-.08-.17.28.28,0,0,1,.25-.25H49.38a.23.23,0,0,1,.17.08.21.21,0,0,1,.07.17.23.23,0,0,1-.07.17A.26.26,0,0,1,49.38,140Z" transform="translate(-4.3 0)"/><path class="cls-6" d="M146.16,140H108.08a.24.24,0,0,1-.17-.07.23.23,0,0,1-.07-.17.21.21,0,0,1,.07-.17.21.21,0,0,1,.17-.08h38.08a.21.21,0,0,1,.17.08.21.21,0,0,1,.07.17.23.23,0,0,1-.07.17A.24.24,0,0,1,146.16,140Z" transform="translate(-4.3 0)"/><path class="cls-6" d="M100.8,130.05H62.72a.24.24,0,0,1-.24-.24.23.23,0,0,1,.07-.17.24.24,0,0,1,.17-.07H100.8a.26.26,0,0,1,.17.07.23.23,0,0,1,.07.17.21.21,0,0,1-.07.17A.22.22,0,0,1,100.8,130.05Z" transform="translate(-4.3 0)"/><path class="cls-5" d="M80.68,117.15a3.57,3.57,0,1,0-3.57-3.57A3.57,3.57,0,0,0,80.68,117.15Z" transform="translate(-4.3 0)"/><path class="cls-8" d="M80.68,114.77a1.19,1.19,0,1,0-1.19-1.19A1.19,1.19,0,0,0,80.68,114.77Z" transform="translate(-4.3 0)"/><path class="cls-5" d="M83.51,120.18a2.32,2.32,0,1,1-4.57.83h0c-.23-1.26.75-1.71,2-1.94S83.28,118.92,83.51,120.18Z" transform="translate(-4.3 0)"/></g></svg>