<svg xmlns="http://www.w3.org/2000/svg" fill="none" viewBox="0 0 20 21" width="20" height="21">
<path fill="#4280ef" d="M 20.0001 10.7416 C 20.0001 10.0661 19.9334 9.3688 19.8223 8.71509 H 10.1973 V 12.572 H 15.71 C 15.4877 13.8141 14.7541 14.9036 13.6649 15.6009 L 16.9548 18.1068 C 18.8887 16.3418 20.0001 13.7705 20.0001 10.7416 Z" />
<path fill="#34a353" d="M 10.1972 20.5038 C 12.9536 20.5038 15.2654 19.6104 16.9547 18.085 L 13.6649 15.6009 C 12.7535 16.211 11.5754 16.5597 10.1972 16.5597 C 7.5298 16.5597 5.28471 14.7947 4.46225 12.4413 L 1.0835 14.9908 C 2.81733 18.3683 6.32945 20.5038 10.1972 20.5038 Z" />
<path fill="#f6b704" d="M 4.4624 12.4196 C 4.04005 11.1775 4.04005 9.82653 4.4624 8.58447 L 1.08365 6.01318 C -0.361215 8.84595 -0.361215 12.1799 1.08365 14.9909 L 4.4624 12.4196 Z" />
<path fill="#e54335" d="M 10.1972 4.46601 C 11.6421 4.44422 13.0647 4.98899 14.1095 5.96956 L 17.0214 3.09321 C 15.1764 1.39355 12.7313 0.478346 10.1972 0.500136 C 6.32945 0.500136 2.81733 2.63561 1.0835 6.01314 L 4.46225 8.58442 C 5.28471 6.20926 7.5298 4.46601 10.1972 4.46601 Z" />
</svg>