<svg xmlns="http://www.w3.org/2000/svg" fill="none" viewBox="0 0 24 25" width="24" height="25">
<path fill="#0187e8" d="M 4.98292 7.69704 C 6.19132 7.69704 7.17092 6.71744 7.17092 5.50904 C 7.17092 4.30065 6.19132 3.32104 4.98292 3.32104 C 3.77452 3.32104 2.79492 4.30065 2.79492 5.50904 C 2.79492 6.71744 3.77452 7.69704 4.98292 7.69704 Z" />
<path fill="#0187e8" d="M 9.23697 9.35505 V 21.4941 H 13.006 V 15.4911 C 13.006 13.9071 13.304 12.3731 15.268 12.3731 C 17.205 12.3731 17.229 14.1841 17.229 15.5911 V 21.4951 H 21 V 14.8381 C 21 11.5681 20.296 9.05505 16.474 9.05505 C 14.639 9.05505 13.409 10.0621 12.906 11.0151 H 12.855 V 9.35505 H 9.23697 Z M 3.09497 9.35505 H 6.86997 V 21.4941 H 3.09497 V 9.35505 Z" />
</svg>