<svg xmlns="http://www.w3.org/2000/svg" fill="none" viewBox="0 0 24 25" width="24" height="25">
<path fill="#ea4435" d="M 12.435 14.8302 L 2.91751 8.77339 C 2.42547 8.44799 2.08091 7.94237 1.95801 7.36541 C 1.83511 6.78845 1.94372 6.1863 2.26043 5.68863 C 2.57715 5.19096 3.07665 4.83758 3.65137 4.70458 C 4.22608 4.57159 4.83004 4.66962 5.33319 4.97756 L 12.3157 9.42078 L 18.585 5.03216 C 19.0741 4.7007 19.674 4.57495 20.2551 4.68207 C 20.8362 4.78918 21.3518 5.12056 21.6906 5.60464 C 22.0294 6.08871 22.1642 6.68663 22.0658 7.26925 C 21.9675 7.85187 21.6439 8.37242 21.165 8.71848 L 12.435 14.8302 Z" />
<path fill="#00ac47" d="M 20.625 20.375 H 17.625 V 6.875 C 17.625 6.27826 17.8621 5.70597 18.284 5.28401 C 18.706 4.86205 19.2783 4.625 19.875 4.625 C 20.4717 4.625 21.044 4.86205 21.466 5.28401 C 21.8879 5.70597 22.125 6.27826 22.125 6.875 V 18.875 C 22.125 19.2728 21.967 19.6544 21.6857 19.9357 C 21.4044 20.217 21.0228 20.375 20.625 20.375 Z" />
<path fill="#ffba00" d="M 22.0922 6.54921 C 22.0856 6.50421 22.0861 6.45823 22.0767 6.41331 C 22.0623 6.34446 22.0355 6.28086 22.015 6.21441 C 21.9951 6.13835 21.9711 6.06342 21.9431 5.98993 C 21.9281 5.95431 21.905 5.92303 21.888 5.88838 C 21.8413 5.78841 21.7873 5.69202 21.7265 5.60001 C 21.6965 5.55643 21.659 5.51931 21.6258 5.47806 C 21.5689 5.40309 21.5074 5.33173 21.4417 5.26438 C 21.3918 5.21586 21.335 5.17528 21.2807 5.13156 C 21.2231 5.08215 21.163 5.03566 21.1007 4.99228 C 21.0413 4.95343 20.9762 4.92351 20.9132 4.89036 C 20.8469 4.85578 20.782 4.81813 20.713 4.79053 C 20.6463 4.76368 20.5752 4.74658 20.5055 4.72611 C 20.4359 4.70563 20.3666 4.68111 20.295 4.66783 C 20.2064 4.65359 20.117 4.64458 20.0273 4.64083 C 19.9703 4.63686 19.9139 4.62688 19.8568 4.62733 C 19.7507 4.63043 19.6449 4.64108 19.5404 4.65921 C 19.4981 4.66551 19.4556 4.66498 19.4137 4.67368 C 19.2722 4.71693 19.131 4.76143 18.9903 4.80718 C 18.9517 4.82368 18.9179 4.84821 18.8804 4.86681 C 18.4996 5.04453 18.1783 5.32875 17.9555 5.68513 C 17.7327 6.04151 17.6179 6.45478 17.625 6.87501 V 11.1965 L 21.165 8.71828 C 21.5126 8.48498 21.7852 8.15592 21.9497 7.77094 C 22.1142 7.38595 22.1636 6.96154 22.0919 6.54906 L 22.0922 6.54921 Z" />
<path fill="#4285f4" d="M 4.125 4.625 C 4.72174 4.625 5.29403 4.86205 5.71599 5.28401 C 6.13795 5.70597 6.375 6.27826 6.375 6.875 V 20.375 H 3.375 C 2.97718 20.375 2.59564 20.217 2.31434 19.9357 C 2.03304 19.6544 1.875 19.2728 1.875 18.875 V 6.875 C 1.875 6.27826 2.11205 5.70597 2.53401 5.28401 C 2.95597 4.86205 3.52826 4.625 4.125 4.625 Z" />
<path fill="#c52528" d="M 1.90791 6.54925 C 1.91451 6.50425 1.91399 6.45827 1.92336 6.41335 C 1.93776 6.3445 1.96454 6.2809 1.98509 6.21445 C 2.00501 6.13842 2.02899 6.06351 2.05694 5.99005 C 2.07194 5.95442 2.09504 5.92315 2.11214 5.8885 C 2.15877 5.78848 2.21277 5.69206 2.27369 5.60005 C 2.30369 5.55647 2.34119 5.51935 2.37434 5.4781 C 2.4312 5.40313 2.49267 5.33176 2.55839 5.26442 C 2.60826 5.2159 2.66511 5.17532 2.71941 5.1316 C 2.77703 5.08216 2.8371 5.03568 2.89941 4.99232 C 2.95889 4.95347 3.02399 4.92355 3.08691 4.8904 C 3.15194 4.85361 3.21877 4.82012 3.28716 4.79005 C 3.35391 4.7632 3.42501 4.7461 3.49461 4.72562 C 3.56421 4.70515 3.63359 4.68062 3.70514 4.66735 C 3.79378 4.65311 3.88319 4.64409 3.97289 4.64035 C 4.02989 4.63637 4.08621 4.6264 4.14336 4.62685 C 4.24946 4.62993 4.3552 4.64059 4.45979 4.65872 C 4.50201 4.66502 4.54454 4.6645 4.58654 4.6732 C 4.65913 4.69169 4.73073 4.71392 4.80104 4.7398 C 4.87174 4.75859 4.94145 4.78092 5.00991 4.8067 C 5.04846 4.8232 5.08229 4.84772 5.11979 4.86632 C 5.21701 4.912 5.3108 4.96463 5.40044 5.02382 C 5.70091 5.23014 5.94666 5.50649 6.11645 5.82902 C 6.28624 6.15155 6.37497 6.51056 6.37499 6.87505 V 10.9492 L 2.83499 8.71847 C 2.48742 8.4851 2.2149 8.15604 2.05038 7.77108 C 1.88585 7.38611 1.83637 6.96173 1.90791 6.54925 Z" />
</svg>