<svg xmlns="http://www.w3.org/2000/svg" fill="none" viewBox="0 0 24 25" width="24" height="25">
<rect fill="white" x="8" y="8.5" width="8" height="8" />
<path fill="#ff0000" d="M 21.5931 7.70301 C 21.3631 6.84501 20.6881 6.16801 19.8311 5.93701 C 18.2651 5.50701 12.0001 5.50001 12.0001 5.50001 C 12.0001 5.50001 5.73609 5.49301 4.16909 5.90401 C 3.32909 6.13301 2.63509 6.82501 2.40309 7.68201 C 1.99009 9.24801 1.98609 12.496 1.98609 12.496 C 1.98609 12.496 1.98209 15.76 2.39209 17.31 C 2.62209 18.167 3.29709 18.844 4.15509 19.075 C 5.73709 19.505 11.9851 19.512 11.9851 19.512 C 11.9851 19.512 18.2501 19.519 19.8161 19.109 C 20.6721 18.879 21.3501 18.203 21.5831 17.346 C 21.9971 15.781 22.0001 12.534 22.0001 12.534 C 22.0001 12.534 22.0201 9.26901 21.5931 7.70301 Z M 9.99609 15.505 L 10.0011 9.50501 L 15.2081 12.51 L 9.99609 15.505 Z" />
</svg>